;Layer: Drill PTH
;EasyEDA v6.3.53, 2020-06-08T12:07:48--7:00
;bd5e1def8c3a44afa438a5c08afba8b4,269c31b763b64a8fadfd0c58d2184f68,10
;Gerber Generator version 0.2
M48
METRIC,LZ,000.000
;Holesize 1 = 0.305 METRIC
T01C0.305
;Holesize 2 = 0.798 METRIC
T02C0.798
;Holesize 3 = 0.915 METRIC
T03C0.915
;Holesize 4 = 1.000 METRIC
T04C1.000
;Holesize 5 = 1.067 METRIC
T05C1.067
;Holesize 6 = 2.000 METRIC
T06C2.000
;Holesize 7 = 3.000 METRIC
T07C3.000
%
G05
G90
T01
X+108839Y+101842
X+108839Y+106922
X+106299Y+104382
X+111379Y+104382
X+007618Y+104142
X+005078Y+106682
X+002538Y+104142
X+005078Y+101602
X+005078Y+007622
X+007618Y+005082
X+005078Y+002542
X+002538Y+005082
X+108839Y+007862
X+111379Y+005322
X+108839Y+002782
X+106299Y+005322
T02
X+078311Y+016799
X+078311Y+014259
X+095057Y+020420
X+095010Y+023008
X+023502Y+098861
X+026042Y+098861
X+063633Y+019457
X+063633Y+016917
T03
X+009779Y+089142
X+009779Y+086602
X+009779Y+084062
X+009779Y+081522
X+009525Y+066282
X+009525Y+068822
X+009525Y+071362
X+009525Y+073902
X+009525Y+043422
X+009525Y+040882
X+009525Y+038342
X+009525Y+035802
X+009779Y+051042
X+009779Y+053582
X+009779Y+056122
X+009779Y+058662
X+019939Y+081522
X+019939Y+078982
X+019939Y+076442
X+019939Y+073902
X+019685Y+058662
X+019685Y+061202
X+019685Y+063742
X+019685Y+066282
X+019685Y+096762
X+019685Y+094222
X+019685Y+091682
X+019685Y+089142
X+009525Y+020562
X+009525Y+023102
X+009525Y+025642
X+009525Y+028182
X+019685Y+043422
X+019685Y+045962
X+019685Y+048502
X+019685Y+051042
X+019685Y+020562
X+019685Y+018022
X+019685Y+015482
X+019685Y+012942
X+019939Y+028182
X+019939Y+030722
X+019939Y+033262
X+019939Y+035802
X+070739Y+020562
X+070739Y+018022
X+070739Y+015482
X+070739Y+012942
X+070739Y+023102
X+091059Y+023102
X+091059Y+012942
X+091059Y+015482
X+091059Y+018022
X+091059Y+020562
X+080899Y+023102
X+080899Y+012942
X+080899Y+015482
X+080899Y+018022
X+080899Y+020562
X+037718Y+035802
X+047878Y+035802
X+037538Y+076082
X+047955Y+076184
X+037718Y+040882
X+047878Y+040882
X+037538Y+089082
X+037538Y+079082
X+065611Y+103112
X+068151Y+103112
X+065659Y+084062
X+065659Y+073902
X+027619Y+105082
X+025079Y+105082
X+022539Y+105082
X+106298Y+023102
X+106298Y+020562
X+106298Y+018022
X+106298Y+015482
X+108838Y+023102
X+108838Y+020562
X+108838Y+018022
X+108838Y+015482
X+031968Y+078922
X+031968Y+056062
X+031968Y+076382
X+031968Y+073842
X+031968Y+071302
X+031968Y+068762
X+031968Y+066222
X+031968Y+063682
X+031968Y+061142
X+031968Y+058602
X+031968Y+081462
X+031968Y+053522
X+031968Y+050982
X+031968Y+048442
X+031968Y+045902
X+031968Y+043362
X+031968Y+040822
X+031968Y+038282
X+031968Y+035742
X+031968Y+033202
X+031968Y+030662
X+054829Y+078922
X+054829Y+056062
X+054829Y+076382
X+054829Y+073842
X+054829Y+071302
X+054829Y+068762
X+054829Y+066222
X+054829Y+063682
X+054829Y+061142
X+054829Y+058602
X+054828Y+081462
X+054829Y+053522
X+054829Y+050982
X+054829Y+048442
X+054829Y+045902
X+054829Y+043362
X+054829Y+040822
X+054829Y+038282
X+054829Y+035742
X+054829Y+033202
X+054829Y+030662
X+048478Y+025582
X+045938Y+025582
X+043398Y+025582
X+040858Y+025582
X+038318Y+025582
T04
X+053009Y+103145
X+050469Y+103145
X+075819Y+056122
X+070739Y+056122
X+075819Y+068822
X+070739Y+068822
X+035195Y+103179
X+037735Y+103179
X+081039Y+035582
X+078499Y+035582
X+075959Y+035582
X+073419Y+035582
X+073279Y+068822
X+073279Y+056122
X+068199Y+038475
X+063119Y+033262
X+086998Y+082896
X+104079Y+082865
X+104020Y+043268
X+087003Y+043267
T05
X+047879Y+094222
X+050419Y+094222
X+052959Y+094222
X+032639Y+094222
X+035179Y+094222
X+037719Y+094222
X+062999Y+094082
X+065539Y+094082
X+068079Y+094082
T06
X+086538Y+098082
X+094038Y+098081
T07
X+005079Y+104142
X+005079Y+005082
X+108839Y+104382
X+108839Y+005322
M30
