G04 Layer: BottomLayer*
G04 EasyEDA v6.3.53, 2020-06-08T12:07:48--7:00*
G04 bd5e1def8c3a44afa438a5c08afba8b4,269c31b763b64a8fadfd0c58d2184f68,10*
G04 Gerber Generator version 0.2*
G04 Scale: 100 percent, Rotated: No, Reflected: No *
G04 Dimensions in millimeters *
G04 leading zeros omitted , absolute positions ,3 integer and 3 decimal *
%FSLAX33Y33*%
%MOMM*%
G90*
G71D02*

%ADD11C,0.499999*%
%ADD12C,0.999998*%
%ADD13C,1.399997*%
%ADD14C,1.999996*%
%ADD15C,0.609600*%
%ADD16C,1.778000*%
%ADD17C,4.999990*%
%ADD18C,1.198880*%
%ADD19R,2.700020X1.999996*%
%ADD20R,1.612900X1.612900*%
%ADD21C,1.612900*%
%ADD22C,1.499997*%

%LPD*%
G54D11*
G01X23562Y98921D02*
G01X23502Y98861D01*
G54D13*
G01X26042Y98861D02*
G01X26821Y98082D01*
G01X38455Y98082D01*
G54D11*
G01X25078Y105082D02*
G01X23502Y103505D01*
G01X23502Y98861D01*
G54D22*
G01X108839Y23102D02*
G01X110020Y23102D01*
G01X111038Y22081D01*
G01X111038Y13836D01*
G01X110050Y12848D01*
G01X97515Y12942D01*
G54D11*
G01X23502Y98861D02*
G01X23502Y95245D01*
G01X22479Y94222D01*
G54D12*
G01X29539Y106972D02*
G01X29539Y107002D01*
G01X27618Y105082D01*
G01X104020Y43268D02*
G01X104020Y43563D01*
G01X108538Y48082D01*
G01X108039Y91582D01*
G01X93538Y107582D01*
G01X29539Y107002D01*
G54D11*
G01X95044Y20407D02*
G01X97515Y20407D01*
G01X95044Y23041D02*
G01X91140Y23041D01*
G01X91093Y23088D01*
G01X80839Y23088D02*
G01X80698Y23088D01*
G01X78158Y20548D01*
G01X78158Y16832D01*
G01X78252Y16738D01*
G54D13*
G01X53423Y98056D02*
G01X37693Y98082D01*
G01X37719Y94222D01*
G01X68047Y98056D02*
G01X52882Y98056D01*
G01X52955Y94293D01*
G01X86538Y98082D02*
G01X68047Y98056D01*
G01X68079Y94082D01*
G01X87003Y43267D02*
G01X87003Y36865D01*
G01X97515Y26353D01*
G01X97515Y12942D01*
G01X91059Y12942D01*
G54D11*
G01X62999Y84042D02*
G01X65659Y84062D01*
G01X62999Y94082D02*
G01X62999Y75647D01*
G01X61193Y73841D01*
G01X54828Y73841D01*
G01X37538Y89082D02*
G01X39539Y87082D01*
G01X39539Y62412D01*
G01X35727Y58601D01*
G01X31968Y58601D01*
G01X54828Y58611D02*
G01X61976Y58687D01*
G01X62661Y57696D01*
G01X62816Y44018D01*
G01X66504Y40330D01*
G01X72153Y40330D01*
G01X73329Y39154D01*
G01X73418Y35581D01*
G01X54828Y61141D02*
G01X63390Y61011D01*
G01X64546Y60003D01*
G01X64546Y44557D01*
G01X67579Y41522D01*
G01X73814Y41522D01*
G01X75958Y39378D01*
G01X75958Y35581D01*
G01X54828Y63681D02*
G01X64592Y63615D01*
G01X66370Y61937D01*
G01X66382Y44902D01*
G01X68498Y42789D01*
G01X76553Y42789D01*
G01X78498Y40846D01*
G01X78498Y35581D01*
G01X54828Y71301D02*
G01X60304Y71301D01*
G01X68265Y63340D01*
G01X68265Y45294D01*
G01X69402Y44156D01*
G01X77622Y44156D01*
G01X81038Y40742D01*
G01X81038Y35581D01*
G54D13*
G01X68199Y38475D02*
G01X68199Y38342D01*
G01X63119Y33262D01*
G54D11*
G01X70739Y15482D02*
G01X60579Y15482D01*
G01X58039Y18022D01*
G01X58039Y45082D01*
G01X57218Y45902D01*
G01X54829Y45902D01*
G01X31968Y30661D02*
G01X29258Y30645D01*
G01X27686Y29198D01*
G01X27658Y25540D01*
G01X23175Y14790D01*
G01X19685Y12942D01*
G01X19939Y35802D02*
G01X22479Y33262D01*
G01X22538Y23082D01*
G01X19685Y20562D01*
G01X19939Y35802D02*
G01X9525Y28182D01*
G01X19685Y51042D02*
G01X9525Y43422D01*
G01X19685Y66282D02*
G01X9779Y58662D01*
G01X19685Y51042D02*
G01X19939Y51042D01*
G01X22479Y48502D01*
G01X22479Y38342D01*
G01X19939Y35802D01*
G01X19939Y81522D02*
G01X9525Y73902D01*
G01X19685Y66282D02*
G01X19939Y66282D01*
G01X22479Y63742D01*
G01X22479Y53836D01*
G01X19685Y51042D01*
G01X19939Y81522D02*
G01X23749Y77712D01*
G01X23749Y70346D01*
G01X19685Y66282D01*
G01X19685Y96762D02*
G01X22479Y94222D01*
G01X22479Y84062D01*
G01X19939Y81522D01*
G01X19685Y96762D02*
G01X9779Y89142D01*
G01X9525Y66282D02*
G01X9525Y66028D01*
G01X4699Y61202D01*
G01X4699Y56122D01*
G01X9779Y51042D01*
G01X9525Y35802D02*
G01X9525Y35548D01*
G01X4699Y30722D01*
G01X4699Y25388D01*
G01X9525Y20562D01*
G01X9779Y51042D02*
G01X4699Y45962D01*
G01X4699Y40628D01*
G01X9525Y35802D01*
G01X9779Y81522D02*
G01X4699Y76442D01*
G01X4699Y71362D01*
G01X9525Y66536D01*
G01X9525Y66282D01*
G01X19685Y89142D02*
G01X9779Y81522D01*
G01X19939Y73902D02*
G01X9525Y66282D01*
G01X19685Y58662D02*
G01X9779Y51042D01*
G01X19685Y43422D02*
G01X9525Y35802D01*
G01X19939Y28182D02*
G01X9525Y20562D01*
G01X9525Y20562D02*
G01X9779Y20562D01*
G01X17399Y12942D01*
G01X19685Y12942D01*

%LPD*%
G36*
G01X10159Y109222D02*
G01X-0Y109222D01*
G01X-0Y99062D01*
G01X10159Y99062D01*
G01X10159Y109222D01*
G37*

%LPD*%
G36*
G01X113919Y10402D02*
G01X103759Y10402D01*
G01X103759Y242D01*
G01X113919Y242D01*
G01X113919Y10402D01*
G37*

%LPD*%
G36*
G01X10159Y10162D02*
G01X-0Y10162D01*
G01X-0Y2D01*
G01X10159Y2D01*
G01X10159Y10162D01*
G37*

%LPD*%
G36*
G01X10159Y109222D02*
G01X-0Y109222D01*
G01X-0Y99062D01*
G01X10159Y99062D01*
G01X10159Y109222D01*
G37*

%LPD*%
G36*
G01X113919Y109462D02*
G01X103759Y109462D01*
G01X103759Y99302D01*
G01X113919Y99302D01*
G01X113919Y109462D01*
G37*
G54D16*
G01X9779Y89142D03*
G01X9779Y86602D03*
G01X9779Y84062D03*
G01X9779Y81522D03*
G01X9525Y66282D03*
G01X9525Y68822D03*
G01X9525Y71362D03*
G01X9525Y73902D03*
G01X9525Y43422D03*
G01X9525Y40882D03*
G01X9525Y38342D03*
G01X9525Y35802D03*
G01X9779Y51042D03*
G01X9779Y53582D03*
G01X9779Y56122D03*
G01X9779Y58662D03*
G01X19939Y81522D03*
G01X19939Y78982D03*
G01X19939Y76442D03*
G01X19939Y73902D03*
G01X19685Y58662D03*
G01X19685Y61202D03*
G01X19685Y63742D03*
G01X19685Y66282D03*
G01X19685Y96762D03*
G01X19685Y94222D03*
G01X19685Y91682D03*
G01X19685Y89142D03*
G01X9525Y20562D03*
G01X9525Y23102D03*
G01X9525Y25642D03*
G01X9525Y28182D03*
G01X19685Y43422D03*
G01X19685Y45962D03*
G01X19685Y48502D03*
G01X19685Y51042D03*
G01X19685Y20562D03*
G01X19685Y18022D03*
G01X19685Y15482D03*
G01X19685Y12942D03*
G01X19939Y28182D03*
G01X19939Y30722D03*
G01X19939Y33262D03*
G01X19939Y35802D03*
G54D17*
G01X86539Y98082D03*
G01X94039Y98082D03*
G01X5078Y104142D03*
G01X5078Y5082D03*
G01X108839Y104382D03*
G54D16*
G01X70739Y20562D03*
G01X70739Y18022D03*
G01X70739Y15482D03*
G01X70739Y12942D03*
G01X70739Y23102D03*
G01X91059Y23102D03*
G01X91059Y12942D03*
G01X91059Y15482D03*
G01X91059Y18022D03*
G01X91059Y20562D03*
G01X80899Y23102D03*
G01X80899Y12942D03*
G01X80899Y15482D03*
G01X80899Y18022D03*
G01X80899Y20562D03*
G54D17*
G01X108839Y5322D03*
G54D16*
G01X37719Y35802D03*
G01X47879Y35802D03*
G54D14*
G01X53009Y103145D03*
G01X50469Y103145D03*
G54D16*
G01X37538Y76082D03*
G01X47955Y76184D03*
G54D14*
G01X75819Y56122D03*
G01X70739Y56122D03*
G01X75819Y68822D03*
G01X70739Y68822D03*
G54D16*
G01X37719Y40882D03*
G01X47879Y40882D03*
G54D14*
G01X35196Y103179D03*
G01X37736Y103179D03*
G54D16*
G01X37538Y89082D03*
G01X37538Y79082D03*
G54D14*
G01X81038Y35582D03*
G01X78498Y35582D03*
G01X75958Y35582D03*
G01X73418Y35582D03*
G01X65612Y103112D03*
G01X68152Y103112D03*
G01X65659Y84062D03*
G01X65659Y73902D03*
G54D18*
G01X78312Y16799D03*
G01X78312Y14259D03*
G01X95057Y20420D03*
G01X95010Y23008D03*
G01X23502Y98861D03*
G01X26042Y98861D03*
G54D16*
G01X27618Y105082D03*
G01X25078Y105082D03*
G01X22538Y105082D03*
G01X106299Y23102D03*
G01X106299Y20562D03*
G01X106299Y18022D03*
G01X106299Y15482D03*
G01X108839Y23102D03*
G01X108839Y20562D03*
G01X108839Y18022D03*
G01X108839Y15482D03*
G54D14*
G01X73279Y68822D03*
G01X73279Y56122D03*
G54D18*
G01X63633Y19457D03*
G01X63633Y16917D03*
G54D14*
G01X86998Y82896D03*
G54D19*
G01X104079Y82865D03*
G01X104020Y43268D03*
G54D14*
G01X87003Y43267D03*
G54D20*
G01X47879Y94222D03*
G54D21*
G01X50419Y94222D03*
G01X52959Y94222D03*
G54D20*
G01X32639Y94222D03*
G54D21*
G01X35179Y94222D03*
G01X37719Y94222D03*
G54D20*
G01X62999Y94082D03*
G54D21*
G01X65539Y94082D03*
G01X68079Y94082D03*
G54D16*
G01X31968Y78922D03*
G01X31968Y56062D03*
G01X31968Y76382D03*
G01X31968Y73842D03*
G01X31968Y71302D03*
G01X31968Y68762D03*
G01X31968Y66222D03*
G01X31968Y63682D03*
G01X31968Y61142D03*
G01X31968Y58602D03*
G01X31968Y81462D03*
G01X31968Y53522D03*
G01X31968Y50982D03*
G01X31968Y48442D03*
G01X31968Y45902D03*
G01X31968Y43362D03*
G01X31968Y40822D03*
G01X31968Y38282D03*
G01X31968Y35742D03*
G01X31968Y33202D03*
G01X31968Y30662D03*
G01X54829Y78922D03*
G01X54829Y56062D03*
G01X54829Y76382D03*
G01X54829Y73842D03*
G01X54829Y71302D03*
G01X54829Y68762D03*
G01X54829Y66222D03*
G01X54829Y63682D03*
G01X54829Y61142D03*
G01X54829Y58602D03*
G01X54828Y81462D03*
G01X54829Y53522D03*
G01X54829Y50982D03*
G01X54829Y48442D03*
G01X54829Y45902D03*
G01X54829Y43362D03*
G01X54829Y40822D03*
G01X54829Y38282D03*
G01X54829Y35742D03*
G01X54829Y33202D03*
G01X54829Y30662D03*
G01X48478Y25582D03*
G01X45938Y25582D03*
G01X43398Y25582D03*
G01X40858Y25582D03*
G01X38318Y25582D03*
G54D14*
G01X68199Y38475D03*
G01X63119Y33262D03*
G54D15*
G01X108839Y101842D03*
G01X108839Y106922D03*
G01X106299Y104382D03*
G01X111379Y104382D03*
G01X7618Y104142D03*
G01X5078Y106682D03*
G01X2538Y104142D03*
G01X5078Y101602D03*
G01X5078Y7622D03*
G01X7618Y5082D03*
G01X5078Y2542D03*
G01X2538Y5082D03*
G01X108839Y7862D03*
G01X111379Y5322D03*
G01X108839Y2782D03*
G01X106299Y5322D03*
M00*
M02*
