G04 Layer: BottomSilkLayer*
G04 EasyEDA v6.3.53, 2020-06-08T12:07:48--7:00*
G04 bd5e1def8c3a44afa438a5c08afba8b4,269c31b763b64a8fadfd0c58d2184f68,10*
G04 Gerber Generator version 0.2*
G04 Scale: 100 percent, Rotated: No, Reflected: No *
G04 Dimensions in millimeters *
G04 leading zeros omitted , absolute positions ,3 integer and 3 decimal *
%FSLAX33Y33*%
%MOMM*%
G90*
G71D02*

%ADD25C,0.203200*%

%LPD*%
G54D25*
G01X105480Y31660D02*
G01X105535Y31769D01*
G01X105644Y31878D01*
G01X105753Y31932D01*
G01X105971Y31932D01*
G01X106080Y31878D01*
G01X106189Y31769D01*
G01X106244Y31660D01*
G01X106299Y31496D01*
G01X106299Y31223D01*
G01X106244Y31060D01*
G01X106189Y30951D01*
G01X106080Y30842D01*
G01X105971Y30787D01*
G01X105753Y30787D01*
G01X105644Y30842D01*
G01X105535Y30951D01*
G01X105480Y31060D01*
G01X105120Y31551D02*
G01X105120Y30787D01*
G01X105120Y31223D02*
G01X105066Y31387D01*
G01X104957Y31496D01*
G01X104848Y31551D01*
G01X104684Y31551D01*
G01X104324Y31223D02*
G01X103669Y31223D01*
G01X103669Y31332D01*
G01X103724Y31442D01*
G01X103779Y31496D01*
G01X103888Y31551D01*
G01X104051Y31551D01*
G01X104160Y31496D01*
G01X104269Y31387D01*
G01X104324Y31223D01*
G01X104324Y31114D01*
G01X104269Y30951D01*
G01X104160Y30842D01*
G01X104051Y30787D01*
G01X103888Y30787D01*
G01X103779Y30842D01*
G01X103669Y30951D01*
G01X102655Y31551D02*
G01X102655Y30787D01*
G01X102655Y31387D02*
G01X102764Y31496D01*
G01X102873Y31551D01*
G01X103037Y31551D01*
G01X103146Y31496D01*
G01X103255Y31387D01*
G01X103309Y31223D01*
G01X103309Y31114D01*
G01X103255Y30951D01*
G01X103146Y30842D01*
G01X103037Y30787D01*
G01X102873Y30787D01*
G01X102764Y30842D01*
G01X102655Y30951D01*
G01X102131Y31932D02*
G01X102131Y31005D01*
G01X102077Y30842D01*
G01X101968Y30787D01*
G01X101859Y30787D01*
G01X102295Y31551D02*
G01X101913Y31551D01*
G01X101499Y31223D02*
G01X100844Y31223D01*
G01X100844Y31332D01*
G01X100899Y31442D01*
G01X100953Y31496D01*
G01X101062Y31551D01*
G01X101226Y31551D01*
G01X101335Y31496D01*
G01X101444Y31387D01*
G01X101499Y31223D01*
G01X101499Y31114D01*
G01X101444Y30951D01*
G01X101335Y30842D01*
G01X101226Y30787D01*
G01X101062Y30787D01*
G01X100953Y30842D01*
G01X100844Y30951D01*
G01X99829Y31932D02*
G01X99829Y30787D01*
G01X99829Y31387D02*
G01X99939Y31496D01*
G01X100048Y31551D01*
G01X100211Y31551D01*
G01X100320Y31496D01*
G01X100429Y31387D01*
G01X100484Y31223D01*
G01X100484Y31114D01*
G01X100429Y30951D01*
G01X100320Y30842D01*
G01X100211Y30787D01*
G01X100048Y30787D01*
G01X99939Y30842D01*
G01X99829Y30951D01*
G01X98629Y31932D02*
G01X98629Y30787D01*
G01X98629Y31932D02*
G01X98139Y31932D01*
G01X97975Y31878D01*
G01X97920Y31823D01*
G01X97866Y31714D01*
G01X97866Y31605D01*
G01X97920Y31496D01*
G01X97975Y31442D01*
G01X98139Y31387D01*
G01X98629Y31387D02*
G01X98139Y31387D01*
G01X97975Y31332D01*
G01X97920Y31278D01*
G01X97866Y31169D01*
G01X97866Y31005D01*
G01X97920Y30896D01*
G01X97975Y30842D01*
G01X98139Y30787D01*
G01X98629Y30787D01*
G01X97451Y31551D02*
G01X97124Y30787D01*
G01X96797Y31551D02*
G01X97124Y30787D01*
G01X97233Y30569D01*
G01X97342Y30460D01*
G01X97451Y30405D01*
G01X97506Y30405D01*
G01X96382Y31442D02*
G01X96437Y31387D01*
G01X96382Y31332D01*
G01X96328Y31387D01*
G01X96382Y31442D01*
G01X96382Y31060D02*
G01X96437Y31005D01*
G01X96382Y30951D01*
G01X96328Y31005D01*
G01X96382Y31060D01*
G01X95128Y31932D02*
G01X95128Y30787D01*
G01X94364Y31932D02*
G01X94364Y30787D01*
G01X95128Y31387D02*
G01X94364Y31387D01*
G01X94004Y31223D02*
G01X93349Y31223D01*
G01X93349Y31332D01*
G01X93404Y31442D01*
G01X93459Y31496D01*
G01X93568Y31551D01*
G01X93731Y31551D01*
G01X93840Y31496D01*
G01X93949Y31387D01*
G01X94004Y31223D01*
G01X94004Y31114D01*
G01X93949Y30951D01*
G01X93840Y30842D01*
G01X93731Y30787D01*
G01X93568Y30787D01*
G01X93459Y30842D01*
G01X93349Y30951D01*
G01X92989Y31932D02*
G01X92989Y30787D01*
G01X92629Y31551D02*
G01X92629Y30405D01*
G01X92629Y31387D02*
G01X92520Y31496D01*
G01X92411Y31551D01*
G01X92248Y31551D01*
G01X92139Y31496D01*
G01X92029Y31387D01*
G01X91975Y31223D01*
G01X91975Y31114D01*
G01X92029Y30951D01*
G01X92139Y30842D01*
G01X92248Y30787D01*
G01X92411Y30787D01*
G01X92520Y30842D01*
G01X92629Y30951D01*
G01X91179Y31932D02*
G01X91288Y31932D01*
G01X91397Y31878D01*
G01X91451Y31714D01*
G01X91451Y30787D01*
G01X91615Y31551D02*
G01X91233Y31551D01*
G01X90819Y31551D02*
G01X90819Y31005D01*
G01X90764Y30842D01*
G01X90655Y30787D01*
G01X90491Y30787D01*
G01X90382Y30842D01*
G01X90219Y31005D01*
G01X90219Y31551D02*
G01X90219Y30787D01*
G01X89859Y31932D02*
G01X89859Y30787D01*
G01X88659Y31932D02*
G01X88659Y30787D01*
G01X88659Y31932D02*
G01X88168Y31932D01*
G01X88004Y31878D01*
G01X87949Y31823D01*
G01X87895Y31714D01*
G01X87895Y31605D01*
G01X87949Y31496D01*
G01X88004Y31442D01*
G01X88168Y31387D01*
G01X88659Y31387D01*
G01X88277Y31387D02*
G01X87895Y30787D01*
G01X87262Y31551D02*
G01X87371Y31496D01*
G01X87480Y31387D01*
G01X87535Y31223D01*
G01X87535Y31114D01*
G01X87480Y30951D01*
G01X87371Y30842D01*
G01X87262Y30787D01*
G01X87099Y30787D01*
G01X86989Y30842D01*
G01X86880Y30951D01*
G01X86826Y31114D01*
G01X86826Y31223D01*
G01X86880Y31387D01*
G01X86989Y31496D01*
G01X87099Y31551D01*
G01X87262Y31551D01*
G01X86466Y31932D02*
G01X86466Y30787D01*
G01X86466Y31387D02*
G01X86357Y31496D01*
G01X86248Y31551D01*
G01X86084Y31551D01*
G01X85975Y31496D01*
G01X85866Y31387D01*
G01X85811Y31223D01*
G01X85811Y31114D01*
G01X85866Y30951D01*
G01X85975Y30842D01*
G01X86084Y30787D01*
G01X86248Y30787D01*
G01X86357Y30842D01*
G01X86466Y30951D01*
G01X85179Y31551D02*
G01X85288Y31496D01*
G01X85397Y31387D01*
G01X85451Y31223D01*
G01X85451Y31114D01*
G01X85397Y30951D01*
G01X85288Y30842D01*
G01X85179Y30787D01*
G01X85015Y30787D01*
G01X84906Y30842D01*
G01X84797Y30951D01*
G01X84742Y31114D01*
G01X84742Y31223D01*
G01X84797Y31387D01*
G01X84906Y31496D01*
G01X85015Y31551D01*
G01X85179Y31551D01*
G01X84219Y31932D02*
G01X84219Y31005D01*
G01X84164Y30842D01*
G01X84055Y30787D01*
G01X83946Y30787D01*
G01X84382Y31551D02*
G01X84000Y31551D01*
G01X83586Y31932D02*
G01X83531Y31878D01*
G01X83477Y31932D01*
G01X83531Y31987D01*
G01X83586Y31932D01*
G01X83531Y31551D02*
G01X83531Y30787D01*
G01X82462Y31387D02*
G01X82571Y31496D01*
G01X82680Y31551D01*
G01X82844Y31551D01*
G01X82953Y31496D01*
G01X83062Y31387D01*
G01X83117Y31223D01*
G01X83117Y31114D01*
G01X83062Y30951D01*
G01X82953Y30842D01*
G01X82844Y30787D01*
G01X82680Y30787D01*
G01X82571Y30842D01*
G01X82462Y30951D01*
G01X81502Y31387D02*
G01X81557Y31496D01*
G01X81720Y31551D01*
G01X81884Y31551D01*
G01X82048Y31496D01*
G01X82102Y31387D01*
G01X82048Y31278D01*
G01X81939Y31223D01*
G01X81666Y31169D01*
G01X81557Y31114D01*
G01X81502Y31005D01*
G01X81502Y30951D01*
G01X81557Y30842D01*
G01X81720Y30787D01*
G01X81884Y30787D01*
G01X82048Y30842D01*
G01X82102Y30951D01*
G01X106299Y29392D02*
G01X106299Y28247D01*
G01X106299Y29392D02*
G01X105808Y29392D01*
G01X105644Y29338D01*
G01X105589Y29283D01*
G01X105535Y29174D01*
G01X105535Y29065D01*
G01X105589Y28956D01*
G01X105644Y28902D01*
G01X105808Y28847D01*
G01X106299Y28847D02*
G01X105808Y28847D01*
G01X105644Y28792D01*
G01X105589Y28738D01*
G01X105535Y28629D01*
G01X105535Y28465D01*
G01X105589Y28356D01*
G01X105644Y28302D01*
G01X105808Y28247D01*
G01X106299Y28247D01*
G01X105175Y29011D02*
G01X105175Y28247D01*
G01X105175Y28683D02*
G01X105120Y28847D01*
G01X105011Y28956D01*
G01X104902Y29011D01*
G01X104739Y29011D01*
G01X104379Y29392D02*
G01X104324Y29338D01*
G01X104269Y29392D01*
G01X104324Y29447D01*
G01X104379Y29392D01*
G01X104324Y29011D02*
G01X104324Y28247D01*
G01X103255Y29011D02*
G01X103255Y28247D01*
G01X103255Y28847D02*
G01X103364Y28956D01*
G01X103473Y29011D01*
G01X103637Y29011D01*
G01X103746Y28956D01*
G01X103855Y28847D01*
G01X103909Y28683D01*
G01X103909Y28574D01*
G01X103855Y28411D01*
G01X103746Y28302D01*
G01X103637Y28247D01*
G01X103473Y28247D01*
G01X103364Y28302D01*
G01X103255Y28411D01*
G01X102895Y29011D02*
G01X102895Y28247D01*
G01X102895Y28792D02*
G01X102731Y28956D01*
G01X102622Y29011D01*
G01X102459Y29011D01*
G01X102349Y28956D01*
G01X102295Y28792D01*
G01X102295Y28247D01*
G01X101935Y29011D02*
G01X101935Y28247D01*
G01X101935Y28792D02*
G01X101771Y28956D01*
G01X101662Y29011D01*
G01X101499Y29011D01*
G01X101389Y28956D01*
G01X101335Y28792D01*
G01X101335Y28247D01*
G01X100320Y29011D02*
G01X100320Y28247D01*
G01X100320Y28847D02*
G01X100429Y28956D01*
G01X100539Y29011D01*
G01X100702Y29011D01*
G01X100811Y28956D01*
G01X100920Y28847D01*
G01X100975Y28683D01*
G01X100975Y28574D01*
G01X100920Y28411D01*
G01X100811Y28302D01*
G01X100702Y28247D01*
G01X100539Y28247D01*
G01X100429Y28302D01*
G01X100320Y28411D01*
G01X98302Y29120D02*
G01X98357Y29229D01*
G01X98466Y29338D01*
G01X98575Y29392D01*
G01X98793Y29392D01*
G01X98902Y29338D01*
G01X99011Y29229D01*
G01X99066Y29120D01*
G01X99120Y28956D01*
G01X99120Y28683D01*
G01X99066Y28520D01*
G01X99011Y28411D01*
G01X98902Y28302D01*
G01X98793Y28247D01*
G01X98575Y28247D01*
G01X98466Y28302D01*
G01X98357Y28411D01*
G01X98302Y28520D01*
G01X97942Y29392D02*
G01X97942Y28247D01*
G01X97942Y28792D02*
G01X97779Y28956D01*
G01X97669Y29011D01*
G01X97506Y29011D01*
G01X97397Y28956D01*
G01X97342Y28792D01*
G01X97342Y28247D01*
G01X96982Y29011D02*
G01X96982Y28247D01*
G01X96982Y28683D02*
G01X96928Y28847D01*
G01X96819Y28956D01*
G01X96709Y29011D01*
G01X96546Y29011D01*
G01X96186Y29392D02*
G01X96131Y29338D01*
G01X96077Y29392D01*
G01X96131Y29447D01*
G01X96186Y29392D01*
G01X96131Y29011D02*
G01X96131Y28247D01*
G01X95117Y28847D02*
G01X95171Y28956D01*
G01X95335Y29011D01*
G01X95499Y29011D01*
G01X95662Y28956D01*
G01X95717Y28847D01*
G01X95662Y28738D01*
G01X95553Y28683D01*
G01X95280Y28629D01*
G01X95171Y28574D01*
G01X95117Y28465D01*
G01X95117Y28411D01*
G01X95171Y28302D01*
G01X95335Y28247D01*
G01X95499Y28247D01*
G01X95662Y28302D01*
G01X95717Y28411D01*
G01X94593Y29392D02*
G01X94593Y28465D01*
G01X94539Y28302D01*
G01X94429Y28247D01*
G01X94320Y28247D01*
G01X94757Y29011D02*
G01X94375Y29011D01*
G01X93960Y29392D02*
G01X93906Y29338D01*
G01X93851Y29392D01*
G01X93906Y29447D01*
G01X93960Y29392D01*
G01X93906Y29011D02*
G01X93906Y28247D01*
G01X92837Y29011D02*
G01X92837Y28247D01*
G01X92837Y28847D02*
G01X92946Y28956D01*
G01X93055Y29011D01*
G01X93219Y29011D01*
G01X93328Y28956D01*
G01X93437Y28847D01*
G01X93491Y28683D01*
G01X93491Y28574D01*
G01X93437Y28411D01*
G01X93328Y28302D01*
G01X93219Y28247D01*
G01X93055Y28247D01*
G01X92946Y28302D01*
G01X92837Y28411D01*
G01X92477Y29011D02*
G01X92477Y28247D01*
G01X92477Y28792D02*
G01X92313Y28956D01*
G01X92204Y29011D01*
G01X92040Y29011D01*
G01X91931Y28956D01*
G01X91877Y28792D01*
G01X91877Y28247D01*
G01X90917Y28847D02*
G01X90971Y28956D01*
G01X91135Y29011D01*
G01X91299Y29011D01*
G01X91462Y28956D01*
G01X91517Y28847D01*
G01X91462Y28738D01*
G01X91353Y28683D01*
G01X91080Y28629D01*
G01X90971Y28574D01*
G01X90917Y28465D01*
G01X90917Y28411D01*
G01X90971Y28302D01*
G01X91135Y28247D01*
G01X91299Y28247D01*
G01X91462Y28302D01*
G01X91517Y28411D01*
G01X90557Y28683D02*
G01X89902Y28683D01*
G01X89902Y28792D01*
G01X89957Y28902D01*
G01X90011Y28956D01*
G01X90120Y29011D01*
G01X90284Y29011D01*
G01X90393Y28956D01*
G01X90502Y28847D01*
G01X90557Y28683D01*
G01X90557Y28574D01*
G01X90502Y28411D01*
G01X90393Y28302D01*
G01X90284Y28247D01*
G01X90120Y28247D01*
G01X90011Y28302D01*
G01X89902Y28411D01*
G01X89542Y29011D02*
G01X89542Y28247D01*
G01X89542Y28792D02*
G01X89379Y28956D01*
G01X89269Y29011D01*
G01X89106Y29011D01*
G01X88997Y28956D01*
G01X88942Y28792D01*
G01X88942Y28247D01*
G01X86651Y28902D02*
G01X86651Y28956D01*
G01X86706Y29011D01*
G01X86760Y29011D01*
G01X86815Y28956D01*
G01X86869Y28847D01*
G01X86979Y28574D01*
G01X87088Y28411D01*
G01X87197Y28302D01*
G01X87306Y28247D01*
G01X87524Y28247D01*
G01X87633Y28302D01*
G01X87688Y28356D01*
G01X87742Y28465D01*
G01X87742Y28574D01*
G01X87688Y28683D01*
G01X87633Y28738D01*
G01X87251Y28956D01*
G01X87197Y29011D01*
G01X87142Y29120D01*
G01X87142Y29229D01*
G01X87197Y29338D01*
G01X87306Y29392D01*
G01X87415Y29338D01*
G01X87469Y29229D01*
G01X87469Y29120D01*
G01X87415Y28956D01*
G01X87306Y28792D01*
G01X87033Y28411D01*
G01X86924Y28302D01*
G01X86815Y28247D01*
G01X86706Y28247D01*
G01X86651Y28302D01*
G01X86651Y28356D01*
G01X85124Y29392D02*
G01X85233Y29338D01*
G01X85342Y29229D01*
G01X85397Y29120D01*
G01X85451Y28956D01*
G01X85451Y28683D01*
G01X85397Y28520D01*
G01X85342Y28411D01*
G01X85233Y28302D01*
G01X85124Y28247D01*
G01X84906Y28247D01*
G01X84797Y28302D01*
G01X84688Y28411D01*
G01X84633Y28520D01*
G01X84579Y28683D01*
G01X84579Y28956D01*
G01X84633Y29120D01*
G01X84688Y29229D01*
G01X84797Y29338D01*
G01X84906Y29392D01*
G01X85124Y29392D01*
G01X84960Y28465D02*
G01X84633Y28138D01*
G01X84219Y29011D02*
G01X84219Y28465D01*
G01X84164Y28302D01*
G01X84055Y28247D01*
G01X83891Y28247D01*
G01X83782Y28302D01*
G01X83619Y28465D01*
G01X83619Y29011D02*
G01X83619Y28247D01*
G01X83259Y29392D02*
G01X83204Y29338D01*
G01X83149Y29392D01*
G01X83204Y29447D01*
G01X83259Y29392D01*
G01X83204Y29011D02*
G01X83204Y28247D01*
G01X82789Y29011D02*
G01X82789Y28247D01*
G01X82789Y28792D02*
G01X82626Y28956D01*
G01X82517Y29011D01*
G01X82353Y29011D01*
G01X82244Y28956D01*
G01X82189Y28792D01*
G01X82189Y28247D01*
G01X81666Y29392D02*
G01X81666Y28465D01*
G01X81611Y28302D01*
G01X81502Y28247D01*
G01X81393Y28247D01*
G01X81829Y29011D02*
G01X81448Y29011D01*
G01X80760Y29011D02*
G01X80869Y28956D01*
G01X80979Y28847D01*
G01X81033Y28683D01*
G01X81033Y28574D01*
G01X80979Y28411D01*
G01X80869Y28302D01*
G01X80760Y28247D01*
G01X80597Y28247D01*
G01X80488Y28302D01*
G01X80379Y28411D01*
G01X80324Y28574D01*
G01X80324Y28683D01*
G01X80379Y28847D01*
G01X80488Y28956D01*
G01X80597Y29011D01*
G01X80760Y29011D01*
G01X79964Y29011D02*
G01X79964Y28247D01*
G01X79964Y28792D02*
G01X79800Y28956D01*
G01X79691Y29011D01*
G01X79528Y29011D01*
G01X79419Y28956D01*
G01X79364Y28792D01*
G01X79364Y28247D01*
G01X77346Y29120D02*
G01X77400Y29229D01*
G01X77509Y29338D01*
G01X77619Y29392D01*
G01X77837Y29392D01*
G01X77946Y29338D01*
G01X78055Y29229D01*
G01X78109Y29120D01*
G01X78164Y28956D01*
G01X78164Y28683D01*
G01X78109Y28520D01*
G01X78055Y28411D01*
G01X77946Y28302D01*
G01X77837Y28247D01*
G01X77619Y28247D01*
G01X77509Y28302D01*
G01X77400Y28411D01*
G01X77346Y28520D01*
G01X76986Y29392D02*
G01X76986Y28247D01*
G01X76626Y29392D02*
G01X76571Y29338D01*
G01X76517Y29392D01*
G01X76571Y29447D01*
G01X76626Y29392D01*
G01X76571Y29011D02*
G01X76571Y28247D01*
G01X76157Y29011D02*
G01X76157Y28247D01*
G01X76157Y28792D02*
G01X75993Y28956D01*
G01X75884Y29011D01*
G01X75720Y29011D01*
G01X75611Y28956D01*
G01X75557Y28792D01*
G01X75557Y28247D01*
G01X75197Y28683D02*
G01X74542Y28683D01*
G01X74542Y28792D01*
G01X74597Y28902D01*
G01X74651Y28956D01*
G01X74760Y29011D01*
G01X74924Y29011D01*
G01X75033Y28956D01*
G01X75142Y28847D01*
G01X75197Y28683D01*
G01X75197Y28574D01*
G01X75142Y28411D01*
G01X75033Y28302D01*
G01X74924Y28247D01*
G01X74760Y28247D01*
G01X74651Y28302D01*
G01X74542Y28411D01*
G01X105535Y26689D02*
G01X105644Y26798D01*
G01X105808Y26852D01*
G01X106026Y26852D01*
G01X106189Y26798D01*
G01X106299Y26689D01*
G01X106299Y26580D01*
G01X106244Y26471D01*
G01X106189Y26416D01*
G01X106080Y26362D01*
G01X105753Y26252D01*
G01X105644Y26198D01*
G01X105589Y26143D01*
G01X105535Y26034D01*
G01X105535Y25871D01*
G01X105644Y25762D01*
G01X105808Y25707D01*
G01X106026Y25707D01*
G01X106189Y25762D01*
G01X106299Y25871D01*
G01X105175Y26143D02*
G01X104520Y26143D01*
G01X104520Y26252D01*
G01X104575Y26362D01*
G01X104629Y26416D01*
G01X104739Y26471D01*
G01X104902Y26471D01*
G01X105011Y26416D01*
G01X105120Y26307D01*
G01X105175Y26143D01*
G01X105175Y26034D01*
G01X105120Y25871D01*
G01X105011Y25762D01*
G01X104902Y25707D01*
G01X104739Y25707D01*
G01X104629Y25762D01*
G01X104520Y25871D01*
G01X103506Y26471D02*
G01X103506Y25707D01*
G01X103506Y26307D02*
G01X103615Y26416D01*
G01X103724Y26471D01*
G01X103888Y26471D01*
G01X103997Y26416D01*
G01X104106Y26307D01*
G01X104160Y26143D01*
G01X104160Y26034D01*
G01X104106Y25871D01*
G01X103997Y25762D01*
G01X103888Y25707D01*
G01X103724Y25707D01*
G01X103615Y25762D01*
G01X103506Y25871D01*
G01X102982Y26852D02*
G01X102982Y25925D01*
G01X102928Y25762D01*
G01X102818Y25707D01*
G01X102709Y25707D01*
G01X103146Y26471D02*
G01X102764Y26471D01*
G01X102186Y26852D02*
G01X102186Y25925D01*
G01X102131Y25762D01*
G01X102022Y25707D01*
G01X101913Y25707D01*
G01X102349Y26471D02*
G01X101968Y26471D01*
G01X101553Y26852D02*
G01X101553Y25707D01*
G01X101193Y26143D02*
G01X100539Y26143D01*
G01X100539Y26252D01*
G01X100593Y26362D01*
G01X100648Y26416D01*
G01X100757Y26471D01*
G01X100920Y26471D01*
G01X101029Y26416D01*
G01X101139Y26307D01*
G01X101193Y26143D01*
G01X101193Y26034D01*
G01X101139Y25871D01*
G01X101029Y25762D01*
G01X100920Y25707D01*
G01X100757Y25707D01*
G01X100648Y25762D01*
G01X100539Y25871D01*
G01X99339Y26852D02*
G01X99339Y25707D01*
G01X99339Y26852D02*
G01X98848Y26852D01*
G01X98684Y26798D01*
G01X98629Y26743D01*
G01X98575Y26634D01*
G01X98575Y26471D01*
G01X98629Y26362D01*
G01X98684Y26307D01*
G01X98848Y26252D01*
G01X99339Y26252D01*
G01X97560Y26471D02*
G01X97560Y25707D01*
G01X97560Y26307D02*
G01X97669Y26416D01*
G01X97779Y26471D01*
G01X97942Y26471D01*
G01X98051Y26416D01*
G01X98160Y26307D01*
G01X98215Y26143D01*
G01X98215Y26034D01*
G01X98160Y25871D01*
G01X98051Y25762D01*
G01X97942Y25707D01*
G01X97779Y25707D01*
G01X97669Y25762D01*
G01X97560Y25871D01*
G01X96546Y26307D02*
G01X96655Y26416D01*
G01X96764Y26471D01*
G01X96928Y26471D01*
G01X97037Y26416D01*
G01X97146Y26307D01*
G01X97200Y26143D01*
G01X97200Y26034D01*
G01X97146Y25871D01*
G01X97037Y25762D01*
G01X96928Y25707D01*
G01X96764Y25707D01*
G01X96655Y25762D01*
G01X96546Y25871D01*
G01X96186Y26852D02*
G01X96131Y26798D01*
G01X96077Y26852D01*
G01X96131Y26907D01*
G01X96186Y26852D01*
G01X96131Y26471D02*
G01X96131Y25707D01*
G01X95280Y26852D02*
G01X95389Y26852D01*
G01X95499Y26798D01*
G01X95553Y26634D01*
G01X95553Y25707D01*
G01X95717Y26471D02*
G01X95335Y26471D01*
G01X94920Y26852D02*
G01X94866Y26798D01*
G01X94811Y26852D01*
G01X94866Y26907D01*
G01X94920Y26852D01*
G01X94866Y26471D02*
G01X94866Y25707D01*
G01X93797Y26307D02*
G01X93906Y26416D01*
G01X94015Y26471D01*
G01X94179Y26471D01*
G01X94288Y26416D01*
G01X94397Y26307D01*
G01X94451Y26143D01*
G01X94451Y26034D01*
G01X94397Y25871D01*
G01X94288Y25762D01*
G01X94179Y25707D01*
G01X94015Y25707D01*
G01X93906Y25762D01*
G01X93797Y25871D01*
G01X92597Y26852D02*
G01X92597Y26034D01*
G01X92542Y25871D01*
G01X92433Y25762D01*
G01X92269Y25707D01*
G01X92160Y25707D01*
G01X91997Y25762D01*
G01X91888Y25871D01*
G01X91833Y26034D01*
G01X91833Y26852D01*
G01X91473Y26471D02*
G01X91473Y25707D01*
G01X91473Y26252D02*
G01X91309Y26416D01*
G01X91200Y26471D01*
G01X91037Y26471D01*
G01X90928Y26416D01*
G01X90873Y26252D01*
G01X90873Y25707D01*
G01X90513Y26852D02*
G01X90459Y26798D01*
G01X90404Y26852D01*
G01X90459Y26907D01*
G01X90513Y26852D01*
G01X90459Y26471D02*
G01X90459Y25707D01*
G01X90044Y26471D02*
G01X89717Y25707D01*
G01X89389Y26471D02*
G01X89717Y25707D01*
G01X89029Y26143D02*
G01X88375Y26143D01*
G01X88375Y26252D01*
G01X88429Y26362D01*
G01X88484Y26416D01*
G01X88593Y26471D01*
G01X88757Y26471D01*
G01X88866Y26416D01*
G01X88975Y26307D01*
G01X89029Y26143D01*
G01X89029Y26034D01*
G01X88975Y25871D01*
G01X88866Y25762D01*
G01X88757Y25707D01*
G01X88593Y25707D01*
G01X88484Y25762D01*
G01X88375Y25871D01*
G01X88015Y26471D02*
G01X88015Y25707D01*
G01X88015Y26143D02*
G01X87960Y26307D01*
G01X87851Y26416D01*
G01X87742Y26471D01*
G01X87579Y26471D01*
G01X86619Y26307D02*
G01X86673Y26416D01*
G01X86837Y26471D01*
G01X87000Y26471D01*
G01X87164Y26416D01*
G01X87219Y26307D01*
G01X87164Y26198D01*
G01X87055Y26143D01*
G01X86782Y26089D01*
G01X86673Y26034D01*
G01X86619Y25925D01*
G01X86619Y25871D01*
G01X86673Y25762D01*
G01X86837Y25707D01*
G01X87000Y25707D01*
G01X87164Y25762D01*
G01X87219Y25871D01*
G01X86259Y26852D02*
G01X86204Y26798D01*
G01X86149Y26852D01*
G01X86204Y26907D01*
G01X86259Y26852D01*
G01X86204Y26471D02*
G01X86204Y25707D01*
G01X85626Y26852D02*
G01X85626Y25925D01*
G01X85571Y25762D01*
G01X85462Y25707D01*
G01X85353Y25707D01*
G01X85789Y26471D02*
G01X85408Y26471D01*
G01X84939Y26471D02*
G01X84611Y25707D01*
G01X84284Y26471D02*
G01X84611Y25707D01*
G01X84720Y25489D01*
G01X84829Y25380D01*
G01X84939Y25325D01*
G01X84993Y25325D01*
M00*
M02*
